<?xml version="1.0" encoding="UTF-8"?><svg id="uuid-8d83954d-3f16-4a0a-a3fe-189e62cd831b" xmlns="http://www.w3.org/2000/svg" xmlns:xlink="http://www.w3.org/1999/xlink" viewBox="0 0 367 396.08"><defs><linearGradient id="uuid-09e370df-ee92-4408-a183-e4c4a49be94f" x1="127.02" y1="237.24" x2="299.12" y2="237.24" gradientUnits="userSpaceOnUse"><stop offset="0" stop-color="#375786" stop-opacity="0"/><stop offset=".02" stop-color="#375786" stop-opacity=".1"/><stop offset=".06" stop-color="#375786" stop-opacity=".37"/><stop offset=".1" stop-color="#375786" stop-opacity=".81"/><stop offset=".12" stop-color="#375786"/><stop offset=".25" stop-color="#375786"/><stop offset=".65" stop-color="#375786"/><stop offset=".82" stop-color="#375786"/><stop offset=".83" stop-color="#375786" stop-opacity=".79"/><stop offset=".84" stop-color="#375786" stop-opacity=".51"/><stop offset=".86" stop-color="#375786" stop-opacity=".29"/><stop offset=".87" stop-color="#375786" stop-opacity=".13"/><stop offset=".88" stop-color="#375786" stop-opacity=".03"/><stop offset=".89" stop-color="#375786" stop-opacity="0"/></linearGradient><linearGradient id="uuid-1cd1d458-3d1e-459c-8109-9d519cb6941d" x1="152.18" y1="188.73" x2="308.53" y2="188.73" gradientUnits="userSpaceOnUse"><stop offset="0" stop-color="#375787" stop-opacity="0"/><stop offset=".08" stop-color="#375787" stop-opacity=".22"/><stop offset=".22" stop-color="#375787" stop-opacity=".55"/><stop offset=".34" stop-color="#375787" stop-opacity=".8"/><stop offset=".45" stop-color="#375787" stop-opacity=".95"/><stop offset=".52" stop-color="#375787"/><stop offset=".65" stop-color="#375787"/><stop offset=".67" stop-color="#375787"/><stop offset="1" stop-color="#375787"/></linearGradient><linearGradient id="uuid-82a295ae-2645-452b-948c-c2d5c90f3065" x1="137.02" y1="237.24" x2="309.12" y2="237.24" gradientUnits="userSpaceOnUse"><stop offset="0" stop-color="#375786" stop-opacity="0"/><stop offset=".04" stop-color="#375786" stop-opacity=".36"/><stop offset=".08" stop-color="#375786" stop-opacity=".71"/><stop offset=".11" stop-color="#375786" stop-opacity=".92"/><stop offset=".12" stop-color="#375786"/><stop offset=".25" stop-color="#375786"/><stop offset=".65" stop-color="#375786"/><stop offset=".71" stop-color="#375786" stop-opacity=".94"/><stop offset=".79" stop-color="#375786" stop-opacity=".8"/><stop offset=".8" stop-color="#375786" stop-opacity=".74"/><stop offset=".82" stop-color="#375786" stop-opacity=".57"/><stop offset=".84" stop-color="#375786" stop-opacity=".31"/><stop offset=".86" stop-color="#375786" stop-opacity="0"/><stop offset="1" stop-color="#375786" stop-opacity="0"/></linearGradient></defs><g id="uuid-011d2728-2f9d-4171-845c-9e64b17e0dfe"><polygon points="202.78 197.83 189.89 234.28 169.44 234.28 182.33 197.83 202.78 197.83" style="fill:#385785;"/><path d="M254.32,216.99h-106.04c-.71,0-1.4-.19-2.01-.55l-1.48-.87c-1.02-.6-1.72-1.62-1.91-2.79l-11.05-68.18c-.13-.81.05-1.64.49-2.33l.73-1.14c.68-1.07,1.86-1.71,3.12-1.71h106.82c1.39,0,2.58,1.01,2.81,2.38l12.19,70.86c.39,2.26-1.35,4.33-3.65,4.33Z" style="fill:#42648f;"/><path d="M149.19,203.73c-.62,0-1.14-.44-1.24-1.05l-10.45-59.57c-.08-.5.3-.96.81-.96h104.06c.4,0,.74.29.81.68l10.42,59.43c.13.77-.46,1.47-1.24,1.47h-103.17Z" style="fill:#698db7;"/><path d="M150.76,197.75l-8.53-48.64c-.31-1.74,1.04-3.34,2.8-3.34h93.09c1.38,0,2.57.99,2.8,2.36l8.53,48.64c.31,1.74-1.04,3.34-2.8,3.34h-93.09c-1.38,0-2.57-.99-2.8-2.36Z" style="fill:#dfddef;"/><path d="M166.2,234.28h40.83c1.33,0,2.41,1.08,2.41,2.41h-45.65c0-1.33,1.08-2.41,2.41-2.41Z" style="fill:#2e5691;"/><path d="M175.56,216.99l-2.96,8.36s9.39-6.99,22.95-7.08l.45-1.28h-20.45Z" style="fill:#1c3664;"/><path d="M178.72,149.49l-.64-3.03c-.31-1.79,1.06-3.43,2.88-3.43h26.03c1.42,0,2.64,1.02,2.88,2.42l.64,3.03c.31,1.79-1.06,3.43-2.88,3.43h-26.03c-1.42,0-2.64-1.02-2.88-2.42Z" style="fill:#698db7;"/><path d="M298.71,238.57H127.42c-.22,0-.41-.59-.41-1.33s.18-1.33.41-1.33h171.29c.22,0,.41.59.41,1.33s-.18,1.33-.41,1.33Z" style="fill:url(#uuid-09e370df-ee92-4408-a183-e4c4a49be94f);"/><path d="M155.02,156.21l-.41-2.89h-7.15l1.55,11h9.94l-1.1-7.82h-2.5c-.16,0-.31-.13-.33-.29Z" style="fill:#2e5691;"/><polygon points="155.13 156.42 154.56 152.41 158.64 156.42 155.13 156.42" style="fill:#2e5691;"/><path d="M155.26,153.8l2.16,2.12h-1.86l-.3-2.12M153.86,151.02l.41,2.92.3,2.12.12.86h5.17l-1.74-1.71-2.16-2.12-2.1-2.07h0Z" style="fill:#dfddef;"/><path d="M169.91,151.59l-.41-2.89h-7.15l1.55,11h9.94l-1.1-7.82h-2.5c-.16,0-.31-.13-.33-.29Z" style="fill:#2e5691;"/><polygon points="170.01 151.8 169.45 147.78 173.53 151.8 170.01 151.8" style="fill:#2e5691;"/><path d="M170.15,149.17l2.16,2.12h-1.86l-.3-2.12M168.75,146.39l.41,2.92.3,2.12.12.86h5.17l-1.74-1.71-2.16-2.12-2.1-2.07h0Z" style="fill:#dfddef;"/><path d="M160.91,174.59l-.41-2.89h-7.15l1.55,11h9.94l-1.1-7.82h-2.5c-.16,0-.31-.13-.33-.29Z" style="fill:#2e5691;"/><polygon points="161.01 174.8 160.45 170.78 164.53 174.8 161.01 174.8" style="fill:#2e5691;"/><path d="M161.15,172.17l2.16,2.12h-1.86l-.3-2.12M159.75,169.39l.41,2.92.3,2.12.12.86h5.17l-1.74-1.71-2.16-2.12-2.1-2.07h0Z" style="fill:#dfddef;"/><path d="M165.91,189.59l-.41-2.89h-7.15l1.55,11h9.94l-1.1-7.82h-2.5c-.16,0-.31-.13-.33-.29Z" style="fill:#2e5691;"/><polygon points="166.01 189.8 165.45 185.78 169.53 189.8 166.01 189.8" style="fill:#2e5691;"/><path d="M166.15,187.17l2.16,2.12h-1.86l-.3-2.12M164.75,184.39l.41,2.92.3,2.12.12.86h5.17l-1.74-1.71-2.16-2.12-2.1-2.07h0Z" style="fill:#dfddef;"/><path d="M227.91,162.59l-.41-2.89h-7.15l1.55,11h9.94l-1.1-7.82h-2.5c-.16,0-.31-.13-.33-.29Z" style="fill:#2e5691;"/><polygon points="228.01 162.8 227.45 158.78 231.53 162.8 228.01 162.8" style="fill:#2e5691;"/><path d="M228.15,160.17l2.16,2.12h-1.86l-.3-2.12M226.75,157.39l.41,2.92.3,2.12.12.86h5.17l-1.74-1.71-2.16-2.12-2.1-2.07h0Z" style="fill:#dfddef;"/><path d="M233.91,179.59l-.41-2.89h-7.15l1.55,11h9.94l-1.1-7.82h-2.5c-.16,0-.31-.13-.33-.29Z" style="fill:#2e5691;"/><polygon points="234.01 179.8 233.45 175.78 237.53 179.8 234.01 179.8" style="fill:#2e5691;"/><path d="M234.15,177.17l2.16,2.12h-1.86l-.3-2.12M232.75,174.39l.41,2.92.3,2.12.12.86h5.17l-1.74-1.71-2.16-2.12-2.1-2.07h0Z" style="fill:#dfddef;"/><path d="M182.91,178.59l-.41-2.89h-7.15l1.55,11h9.94l-1.1-7.82h-2.5c-.16,0-.31-.13-.33-.29Z" style="fill:#2e5691;"/><polygon points="183.01 178.8 182.45 174.78 186.53 178.8 183.01 178.8" style="fill:#2e5691;"/><path d="M183.15,176.17l2.16,2.12h-1.86l-.3-2.12M181.75,173.39l.41,2.92.3,2.12.12.86h5.17l-1.74-1.71-2.16-2.12-2.1-2.07h0Z" style="fill:#dfddef;"/><path d="M211.91,158.59l-.41-2.89h-7.15l1.55,11h9.94l-1.1-7.82h-2.5c-.16,0-.31-.13-.33-.29Z" style="fill:#2e5691;"/><polygon points="212.01 158.8 211.45 154.78 215.53 158.8 212.01 158.8" style="fill:#2e5691;"/><path d="M212.15,156.17l2.16,2.12h-1.86l-.3-2.12M210.75,153.39l.41,2.92.3,2.12.12.86h5.17l-1.74-1.71-2.16-2.12-2.1-2.07h0Z" style="fill:#dfddef;"/><path d="M235.91,150.59l-.41-2.89h-7.15l1.55,11h9.94l-1.1-7.82h-2.5c-.16,0-.31-.13-.33-.29Z" style="fill:#2e5691;"/><polygon points="236.01 150.8 235.45 146.78 239.53 150.8 236.01 150.8" style="fill:#2e5691;"/><path d="M236.15,148.17l2.16,2.12h-1.86l-.3-2.12M234.75,145.39l.41,2.92.3,2.12.12.86h5.17l-1.74-1.71-2.16-2.12-2.1-2.07h0Z" style="fill:#dfddef;"/><path d="M183.41,157.09l-.41-2.89h-7.15l1.55,11h9.94l-1.1-7.82h-2.5c-.16,0-.31-.13-.33-.29Z" style="fill:#2e5691;"/><polygon points="183.51 157.3 182.95 153.28 187.03 157.3 183.51 157.3" style="fill:#2e5691;"/><path d="M183.65,154.67l2.16,2.12h-1.86l-.3-2.12M182.25,151.89l.41,2.92.3,2.12.12.86h5.17l-1.74-1.71-2.16-2.12-2.1-2.07h0Z" style="fill:#dfddef;"/><path d="M196.41,187.09l-.41-2.89h-7.15l1.55,11h9.94l-1.1-7.82h-2.5c-.16,0-.31-.13-.33-.29Z" style="fill:#2e5691;"/><polygon points="196.51 187.3 195.95 183.28 200.03 187.3 196.51 187.3" style="fill:#2e5691;"/><path d="M196.65,184.67l2.16,2.12h-1.86l-.3-2.12M195.25,181.89l.41,2.92.3,2.12.12.86h5.17l-1.74-1.71-2.16-2.12-2.1-2.07h0Z" style="fill:#dfddef;"/><polyline points="155.26 159.69 179.52 181.19 181.59 159.69 204.35 176.17 211.85 162.3 228.15 165.8 228.63 165.61" style="fill:none; stroke:#2e5691; stroke-miterlimit:10;"/><polyline points="164.84 193.19 179.52 181.19 196.65 192.19 217.59 187.69 234.15 182.67" style="fill:none; stroke:#2e5691; stroke-miterlimit:10;"/><line x1="168.31" y1="154.19" x2="181.59" y2="159.69" style="fill:none; stroke:#2e5691; stroke-miterlimit:10;"/><line x1="159.09" y1="178.2" x2="179.52" y2="181.19" style="fill:none; stroke:#2e5691; stroke-miterlimit:10;"/><line x1="226.35" y1="167.69" x2="217.59" y2="185.74" style="fill:none; stroke:#2e5691; stroke-miterlimit:10;"/><path d="M205.91,171.59l-.41-2.89h-7.15l1.55,11h9.94l-1.1-7.82h-2.5c-.16,0-.31-.13-.33-.29Z" style="fill:#2e5691;"/><polygon points="206.01 171.8 205.45 167.78 209.53 171.8 206.01 171.8" style="fill:#2e5691;"/><path d="M206.15,169.17l2.16,2.12h-1.86l-.3-2.12M204.75,166.39l.41,2.92.3,2.12.12.86h5.17l-1.74-1.71-2.16-2.12-2.1-2.07h0Z" style="fill:#dfddef;"/><path d="M219.41,185.09l-.41-2.89h-7.15l1.55,11h9.94l-1.1-7.82h-2.5c-.16,0-.31-.13-.33-.29Z" style="fill:#2e5691;"/><polygon points="219.51 185.3 218.95 181.28 223.03 185.3 219.51 185.3" style="fill:#2e5691;"/><path d="M219.65,182.67l2.16,2.12h-1.86l-.3-2.12M218.25,179.89l.41,2.92.3,2.12.12.86h5.17l-1.74-1.71-2.16-2.12-2.1-2.07h0Z" style="fill:#dfddef;"/><path d="M316.75,295.23c-25.78,20.58-59.69,32.77-98.3,32.77-94.75,0-181.88-73.43-194.61-164C11.11,73.43,77.6,0,172.34,0c39.89,0,78.42,13.01,110.62,34.84l-35.63,40.59c-20.01-11.99-43.17-19.01-67.06-19.01-63.03,0-107.26,48.84-98.79,109.09,8.47,60.25,66.43,109.09,129.45,109.09,23.63,0,44.63-6.87,61.19-18.63l44.62,39.26Z" style="fill:#1c3664;"/><path d="M315.58,63.75c26.32,27.72,44.55,62.49,49.86,100.25,5.25,37.38-2.99,71.84-21.14,99.43l-47.44-36.16c10.17-17.56,14.57-38.83,11.35-61.75-3.28-23.32-13.97-44.94-29.51-62.67l36.87-39.09Z" style="fill:#cb9831;"/><path d="M87.29,340.3l-39.03-31.36L3.65,353.4c-2.61,2.6-3.84,5.77-3.63,9.39.22,3.6,1.78,6.63,4.66,8.94l26.68,21.47c2.89,2.3,6.25,3.24,9.96,2.78,3.7-.46,6.7-2.21,8.87-5.16l37.11-50.52Z" style="fill:#1c3664;"/><polygon points="102.29 319.85 66.31 290.94 57.3 299.92 94.78 330.08 102.29 319.85" style="fill:#1c3664;"/><polygon points="128.8 280.85 92.83 251.94 72.63 280.92 110.11 311.08 128.8 280.85" style="fill:#1c3664;"/><polygon points="249.51 252.38 314.17 256.86 306.13 220.44 263.66 220.03 249.51 252.38" style="fill:#fff;"/><path d="M207.55,72.52l89.82,42.95c6.24,3.33,4.68,11.28-2.2,11.26l-160.01-.47c-6.75-.02-10.54-7.73-5.49-11.15l70.2-42.47c2.11-1.42,5.15-1.47,7.69-.11Z" style="fill:none; stroke:#fff; stroke-linecap:round; stroke-linejoin:round; stroke-width:18px;"/><path d="M192.55,67.51l104.82,47.95c6.24,3.33,4.68,11.28-2.2,11.26l-189.01-.47c-6.75-.02-10.54-7.73-5.49-11.15l84.2-47.47c2.11-1.42,5.15-1.47,7.69-.11Z" style="fill:none; stroke:#375787; stroke-linecap:round; stroke-linejoin:round; stroke-width:6px;"/><polyline points="152.18 249 306.13 249 301.79 225.37 283.15 225.37 266.79 126.79" style="fill:none; stroke:url(#uuid-1cd1d458-3d1e-459c-8109-9d519cb6941d); stroke-miterlimit:10; stroke-width:4px;"/><path d="M308.71,238.57h-157.29c-.22,0-14.41-.59-14.41-1.33s14.18-1.33,14.41-1.33h157.29c.22,0,.41.59.41,1.33s-.18,1.33-.41,1.33Z" style="fill:url(#uuid-82a295ae-2645-452b-948c-c2d5c90f3065);"/></g></svg>